
<svg width="7" height="12" viewBox="0 0 7 12" fill="none" xmlns="http://www.w3.org/2000/svg">
<path d="M6.50019 6.00019C6.50095 5.86858 6.47572 5.73812 6.42596 5.61628C6.37619 5.49444 6.30287 5.38363 6.21019 5.29019L2.21019 1.29019C2.11695 1.19695 2.00626 1.12299 1.88443 1.07253C1.76261 1.02207 1.63204 0.996094 1.50019 0.996094C1.36833 0.996094 1.23776 1.02207 1.11594 1.07253C0.994113 1.12299 0.883424 1.19695 0.790185 1.29019C0.696946 1.38342 0.622985 1.49411 0.572525 1.61594C0.522065 1.73776 0.496094 1.86833 0.496094 2.00019C0.496094 2.13204 0.522065 2.26261 0.572525 2.38444C0.622985 2.50626 0.696947 2.61695 0.790185 2.71019L4.10019 6.00019L0.920185 9.30019C0.817896 9.39218 0.735687 9.50428 0.678701 9.6295C0.621715 9.75471 0.591177 9.89033 0.588998 10.0279C0.586819 10.1654 0.613044 10.302 0.666035 10.4289C0.719026 10.5559 0.797643 10.6705 0.896967 10.7657C0.996292 10.8609 1.11419 10.9346 1.24328 10.9821C1.37238 11.0297 1.50989 11.0501 1.64723 11.042C1.78456 11.034 1.91877 10.9977 2.04144 10.9355C2.16412 10.8732 2.27263 10.7863 2.36019 10.6802L6.22019 6.68019C6.3965 6.49731 6.49661 6.25419 6.50019 6.00019Z" fill="#97A0A8"/>
</svg>
