<svg width="22" height="21" viewBox="0 0 22 21" fill="none" xmlns="http://www.w3.org/2000/svg">
<path d="M14.1053 10.5687C14.106 10.4543 14.084 10.3409 14.0407 10.235C13.9974 10.1291 13.9336 10.0327 13.8529 9.95152L10.3719 6.4744C10.2907 6.39335 10.1944 6.32906 10.0884 6.28519C9.98234 6.24133 9.86871 6.21875 9.75396 6.21875C9.63921 6.21875 9.52558 6.24133 9.41956 6.28519C9.31354 6.32906 9.21721 6.39335 9.13607 6.4744C9.05492 6.55545 8.99056 6.65167 8.94664 6.75757C8.90273 6.86346 8.88013 6.97697 8.88013 7.09159C8.88013 7.20621 8.90273 7.31971 8.94664 7.42561C8.99056 7.53151 9.05492 7.62773 9.13607 7.70878L12.0167 10.5687L9.2492 13.4373C9.16018 13.5173 9.08864 13.6148 9.03904 13.7236C8.98945 13.8324 8.96288 13.9503 8.96098 14.0699C8.95908 14.1895 8.98191 14.3082 9.02802 14.4185C9.07414 14.5289 9.14256 14.6286 9.229 14.7113C9.31543 14.794 9.41804 14.8581 9.53038 14.8994C9.64273 14.9407 9.76241 14.9585 9.88193 14.9515C10.0014 14.9445 10.1182 14.913 10.225 14.8588C10.3318 14.8047 10.4262 14.7292 10.5024 14.6369L13.8616 11.1598C14.0151 11.0009 14.1022 10.7895 14.1053 10.5687Z" fill="97A0A8"/>
</svg>
